<?xml version="1.0" encoding="utf-8"?> <!-- Generated by Layerhero SVG Exporter: http://www.layerhero.com/photoshop-svg-exporter --><!DOCTYPE svg PUBLIC "-//W3C//DTD SVG 1.1//EN" "http://www.w3.org/Graphics/SVG/1.1/DTD/svg11.dtd"><svg version="1.1" baseProfile="full" xmlns="http://www.w3.org/2000/svg" xmlns:xlink="http://www.w3.org/1999/xlink" xmlns:ev="http://www.w3.org/2001/xml-events" width="34" height="34" viewBox="0 0 34 34"><g transform="scale(NaN)" ><path fill-rule="evenodd"  fill="rgb( 80, 92, 112 )" d="M28.560,34.000 C28.560,34.000 5.440,34.000 5.440,34.000 C2.448,34.000 0.000,31.552 0.000,28.560 C0.000,28.560 0.000,5.440 0.000,5.440 C0.000,2.448 2.448,-0.000 5.440,-0.000 C5.440,-0.000 28.560,-0.000 28.560,-0.000 C31.552,-0.000 34.000,2.448 34.000,5.440 C34.000,5.440 34.000,28.560 34.000,28.560 C34.000,31.552 31.552,34.000 28.560,34.000 ZM17.000,6.800 C11.365,6.800 6.800,11.367 6.800,17.000 C6.800,22.634 11.365,27.200 17.000,27.200 C22.634,27.200 27.200,22.634 27.200,17.000 C27.200,11.367 22.634,6.800 17.000,6.800 ZM21.760,19.040 C20.634,19.040 19.720,18.126 19.720,17.000 C19.720,15.873 20.634,14.960 21.760,14.960 C22.886,14.960 23.800,15.873 23.800,17.000 C23.800,18.126 22.886,19.040 21.760,19.040 ZM12.240,19.040 C11.113,19.040 10.200,18.126 10.200,17.000 C10.200,15.873 11.113,14.960 12.240,14.960 C13.367,14.960 14.280,15.873 14.280,17.000 C14.280,18.126 13.367,19.040 12.240,19.040 Z"/></g></svg>