<?xml version="1.0" encoding="utf-8"?> <!-- Generated by Layerhero SVG Exporter: http://www.layerhero.com/photoshop-svg-exporter --><!DOCTYPE svg PUBLIC "-//W3C//DTD SVG 1.1//EN" "http://www.w3.org/Graphics/SVG/1.1/DTD/svg11.dtd"><svg version="1.1" baseProfile="full" xmlns="http://www.w3.org/2000/svg" xmlns:xlink="http://www.w3.org/1999/xlink" xmlns:ev="http://www.w3.org/2001/xml-events" width="28" height="32" viewBox="0 0 28 32"><g transform="scale(NaN)" ><path fill-rule="evenodd"  fill="rgb( 80, 92, 112 )" d="M19.655,31.991 C19.655,31.991 19.655,0.017 19.655,0.017 C19.655,0.017 27.996,0.017 27.996,0.017 C27.996,0.017 27.996,31.991 27.996,31.991 C27.996,31.991 19.655,31.991 19.655,31.991 ZM25.848,3.013 C25.848,3.013 21.804,3.013 21.804,3.013 C21.804,3.013 21.804,9.791 21.804,9.791 C21.804,9.791 25.848,9.791 25.848,9.791 C25.848,9.791 25.848,3.013 25.848,3.013 ZM25.848,12.134 C25.848,12.134 21.804,12.134 21.804,12.134 C21.804,12.134 21.804,14.946 21.804,14.946 C21.804,14.946 25.848,14.946 25.848,14.946 C25.848,14.946 25.848,12.134 25.848,12.134 ZM23.826,24.928 C22.709,24.928 21.804,25.838 21.804,26.961 C21.804,28.083 22.709,28.995 23.826,28.995 C24.943,28.995 25.848,28.083 25.848,26.961 C25.848,25.838 24.943,24.928 23.826,24.928 ZM9.832,0.017 C9.832,0.017 18.172,0.017 18.172,0.017 C18.172,0.017 18.172,31.991 18.172,31.991 C18.172,31.991 9.832,31.991 9.832,31.991 C9.832,31.991 9.832,0.017 9.832,0.017 ZM14.002,28.995 C15.121,28.995 16.025,28.083 16.025,26.961 C16.025,25.838 15.119,24.928 14.002,24.928 C12.886,24.928 11.981,25.838 11.981,26.961 C11.981,28.083 12.886,28.995 14.002,28.995 ZM11.981,14.946 C11.981,14.946 16.025,14.946 16.025,14.946 C16.025,14.946 16.025,12.134 16.025,12.134 C16.025,12.134 11.981,12.134 11.981,12.134 C11.981,12.134 11.981,14.946 11.981,14.946 ZM11.981,9.790 C11.981,9.790 16.025,9.790 16.025,9.790 C16.025,9.790 16.025,3.013 16.025,3.013 C16.025,3.013 11.981,3.013 11.981,3.013 C11.981,3.013 11.981,9.790 11.981,9.790 ZM0.010,0.017 C0.010,0.017 8.350,0.017 8.350,0.017 C8.350,0.017 8.350,31.991 8.350,31.991 C8.350,31.991 0.010,31.991 0.010,31.991 C0.010,31.991 0.010,0.017 0.010,0.017 ZM4.179,28.995 C5.298,28.995 6.202,28.083 6.202,26.961 C6.202,25.838 5.297,24.928 4.179,24.928 C3.063,24.928 2.158,25.838 2.158,26.961 C2.158,28.083 3.063,28.995 4.179,28.995 ZM2.158,14.946 C2.158,14.946 6.202,14.946 6.202,14.946 C6.202,14.946 6.202,12.134 6.202,12.134 C6.202,12.134 2.158,12.134 2.158,12.134 C2.158,12.134 2.158,14.946 2.158,14.946 ZM2.158,9.790 C2.158,9.790 6.202,9.790 6.202,9.790 C6.202,9.790 6.202,3.013 6.202,3.013 C6.202,3.013 2.158,3.013 2.158,3.013 C2.158,3.013 2.158,9.790 2.158,9.790 Z"/></g></svg>