<?xml version="1.0" encoding="utf-8"?> <!-- Generated by Layerhero SVG Exporter: http://www.layerhero.com/photoshop-svg-exporter --><!DOCTYPE svg PUBLIC "-//W3C//DTD SVG 1.1//EN" "http://www.w3.org/Graphics/SVG/1.1/DTD/svg11.dtd"><svg version="1.1" baseProfile="full" xmlns="http://www.w3.org/2000/svg" xmlns:xlink="http://www.w3.org/1999/xlink" xmlns:ev="http://www.w3.org/2001/xml-events" width="46" height="57" viewBox="0 0 46 57"><g transform="scale(NaN)" ><path fill-rule="evenodd"  fill="rgb( 255, 255, 255 )" d="M31.847,49.870 C32.824,49.870 33.616,49.072 33.616,48.090 C33.616,48.090 33.616,26.718 33.616,26.718 C33.616,25.736 32.824,24.937 31.847,24.937 C30.871,24.937 30.078,25.736 30.078,26.718 C30.078,26.718 30.078,48.090 30.078,48.090 C30.078,49.072 30.871,49.870 31.847,49.870 ZM42.463,7.128 C42.463,7.128 31.847,7.128 31.847,7.128 C31.847,7.128 31.847,3.566 31.847,3.566 C31.847,1.598 30.264,0.004 28.308,0.004 C28.308,0.004 17.693,0.004 17.693,0.004 C15.737,0.004 14.154,1.598 14.154,3.566 C14.154,3.566 14.154,7.128 14.154,7.128 C14.154,7.128 3.538,7.128 3.538,7.128 C1.583,7.128 -0.001,8.722 -0.001,10.690 C-0.001,10.690 -0.001,14.251 -0.001,14.251 C-0.001,16.218 1.583,17.814 3.538,17.814 C3.538,17.814 3.538,49.870 3.538,49.870 C3.538,53.804 6.707,56.994 10.615,56.994 C10.615,56.994 35.385,56.994 35.385,56.994 C39.295,56.994 42.463,53.804 42.463,49.870 C42.463,49.870 42.463,17.814 42.463,17.814 C44.419,17.814 46.002,16.218 46.002,14.251 C46.002,14.251 46.002,10.690 46.002,10.690 C46.002,8.722 44.419,7.128 42.463,7.128 ZM17.693,5.347 C17.693,4.364 18.485,3.566 19.462,3.566 C19.462,3.566 26.539,3.566 26.539,3.566 C27.516,3.566 28.308,4.364 28.308,5.347 C28.308,5.347 28.308,7.128 28.308,7.128 C26.594,7.128 17.693,7.128 17.693,7.128 C17.693,7.128 17.693,5.347 17.693,5.347 ZM38.924,49.870 C38.924,51.837 37.341,53.432 35.385,53.432 C35.385,53.432 10.615,53.432 10.615,53.432 C8.660,53.432 7.077,51.837 7.077,49.870 C7.077,49.870 7.077,17.814 7.077,17.814 C7.077,17.814 38.924,17.814 38.924,17.814 C38.924,17.814 38.924,49.870 38.924,49.870 ZM40.694,14.251 C40.694,14.251 5.307,14.251 5.307,14.251 C4.331,14.251 3.538,13.454 3.538,12.471 C3.538,11.488 4.331,10.690 5.307,10.690 C5.307,10.690 40.694,10.690 40.694,10.690 C41.670,10.690 42.463,11.488 42.463,12.471 C42.463,13.454 41.670,14.251 40.694,14.251 ZM14.154,49.870 C15.131,49.870 15.923,49.072 15.923,48.090 C15.923,48.090 15.923,26.718 15.923,26.718 C15.923,25.736 15.131,24.937 14.154,24.937 C13.177,24.937 12.385,25.736 12.385,26.718 C12.385,26.718 12.385,48.090 12.385,48.090 C12.385,49.072 13.177,49.870 14.154,49.870 ZM23.001,49.870 C23.978,49.870 24.770,49.072 24.770,48.090 C24.770,48.090 24.770,26.718 24.770,26.718 C24.770,25.736 23.978,24.937 23.001,24.937 C22.024,24.937 21.231,25.736 21.231,26.718 C21.231,26.718 21.231,48.090 21.231,48.090 C21.231,49.072 22.024,49.870 23.001,49.870 Z"/></g></svg>