<?xml version="1.0" encoding="utf-8"?> <!-- Generated by Layerhero SVG Exporter: http://www.layerhero.com/photoshop-svg-exporter --><!DOCTYPE svg PUBLIC "-//W3C//DTD SVG 1.1//EN" "http://www.w3.org/Graphics/SVG/1.1/DTD/svg11.dtd"><svg version="1.1" baseProfile="full" xmlns="http://www.w3.org/2000/svg" xmlns:xlink="http://www.w3.org/1999/xlink" xmlns:ev="http://www.w3.org/2001/xml-events" width="105" height="107" viewBox="0 0 105 107"><g transform="scale(NaN)" ><path fill-rule="evenodd"  opacity="0.42" fill="rgb( 255, 255, 255 )" d="M97.636,99.676 C97.636,99.676 97.636,95.984 97.636,95.984 C97.636,95.984 101.320,95.984 101.320,95.984 C101.320,95.984 101.320,92.292 101.320,92.292 C101.320,92.292 105.003,92.292 105.003,92.292 C105.003,92.292 105.003,99.676 105.003,99.676 C105.003,99.676 97.636,99.676 97.636,99.676 ZM101.320,68.030 C101.320,68.030 105.003,68.030 105.003,68.030 C105.003,68.030 105.003,80.163 105.003,80.163 C105.003,80.163 101.320,80.163 101.320,80.163 C101.320,80.163 101.320,68.030 101.320,68.030 ZM101.320,43.766 C101.320,43.766 105.003,43.766 105.003,43.766 C105.003,43.766 105.003,55.899 105.003,55.899 C105.003,55.899 101.320,55.899 101.320,55.899 C101.320,55.899 101.320,43.766 101.320,43.766 ZM101.320,19.506 C101.320,19.506 105.003,19.506 105.003,19.506 C105.003,19.506 105.003,31.637 105.003,31.637 C105.003,31.637 101.320,31.637 101.320,31.637 C101.320,31.637 101.320,19.506 101.320,19.506 ZM101.320,3.681 C101.320,3.681 97.636,3.681 97.636,3.681 C97.636,3.681 97.636,-0.011 97.636,-0.011 C97.636,-0.011 105.003,-0.011 105.003,-0.011 C105.003,-0.011 105.003,7.373 105.003,7.373 C105.003,7.373 101.320,7.373 101.320,7.373 C101.320,7.373 101.320,3.681 101.320,3.681 ZM73.434,95.984 C73.434,95.984 85.535,95.984 85.535,95.984 C85.535,95.984 85.535,99.676 85.535,99.676 C85.535,99.676 73.434,99.676 73.434,99.676 C73.434,99.676 73.434,95.984 73.434,95.984 ZM73.430,-0.011 C73.430,-0.011 85.532,-0.011 85.532,-0.011 C85.532,-0.011 85.532,3.681 85.532,3.681 C85.532,3.681 73.430,3.681 73.430,3.681 C73.430,3.681 73.430,-0.011 73.430,-0.011 ZM49.226,95.984 C49.226,95.984 61.329,95.984 61.329,95.984 C61.329,95.984 61.329,99.676 61.329,99.676 C61.329,99.676 49.226,99.676 49.226,99.676 C49.226,99.676 49.226,95.984 49.226,95.984 ZM49.226,-0.011 C49.226,-0.011 61.329,-0.011 61.329,-0.011 C61.329,-0.011 61.329,3.681 61.329,3.681 C61.329,3.681 49.226,3.681 49.226,3.681 C49.226,3.681 49.226,-0.011 49.226,-0.011 ZM25.017,95.984 C25.017,95.984 37.122,95.984 37.122,95.984 C37.122,95.984 37.122,99.676 37.122,99.676 C37.122,99.676 25.017,99.676 25.017,99.676 C25.017,99.676 25.017,95.984 25.017,95.984 ZM25.017,-0.011 C25.017,-0.011 37.122,-0.011 37.122,-0.011 C37.122,-0.011 37.122,3.681 37.122,3.681 C37.122,3.681 25.017,3.681 25.017,3.681 C25.017,3.681 25.017,-0.011 25.017,-0.011 ZM10.839,107.003 C10.839,107.003 7.149,107.003 7.149,107.003 C7.149,107.003 7.149,99.317 7.149,99.317 C7.149,99.317 0.009,99.317 0.009,99.317 C0.009,99.317 0.009,95.903 0.009,95.903 C0.009,95.903 7.149,95.903 7.149,95.903 C7.149,95.903 7.149,88.255 7.149,88.255 C7.149,88.255 10.839,88.255 10.839,88.255 C10.839,88.255 10.839,95.903 10.839,95.903 C10.839,95.903 18.016,95.903 18.016,95.903 C18.016,95.903 18.016,99.317 18.016,99.317 C18.016,99.317 10.839,99.317 10.839,99.317 C10.839,99.317 10.839,107.003 10.839,107.003 ZM5.545,19.506 C5.545,19.506 9.228,19.506 9.228,19.506 C9.228,19.506 9.228,31.637 9.228,31.637 C9.228,31.637 5.545,31.637 5.545,31.637 C5.545,31.637 5.545,19.506 5.545,19.506 ZM9.228,80.163 C9.228,80.163 5.545,80.163 5.545,80.163 C5.545,80.163 5.545,68.030 5.545,68.030 C5.545,68.030 9.228,68.030 9.228,68.030 C9.228,68.030 9.228,80.163 9.228,80.163 ZM5.545,43.766 C5.545,43.766 9.228,43.766 9.228,43.766 C9.228,43.766 9.228,55.899 9.228,55.899 C9.228,55.899 5.545,55.899 5.545,55.899 C5.545,55.899 5.545,43.766 5.545,43.766 ZM9.228,7.373 C9.228,7.373 5.545,7.373 5.545,7.373 C5.545,7.373 5.545,-0.011 5.545,-0.011 C5.545,-0.011 12.912,-0.011 12.912,-0.011 C12.912,-0.011 12.912,3.681 12.912,3.681 C12.912,3.681 9.228,3.681 9.228,3.681 C9.228,3.681 9.228,7.373 9.228,7.373 Z"/></g></svg>