<?xml version="1.0" encoding="utf-8"?> <!-- Generated by Layerhero SVG Exporter: http://www.layerhero.com/photoshop-svg-exporter --><!DOCTYPE svg PUBLIC "-//W3C//DTD SVG 1.1//EN" "http://www.w3.org/Graphics/SVG/1.1/DTD/svg11.dtd"><svg version="1.1" baseProfile="full" xmlns="http://www.w3.org/2000/svg" xmlns:xlink="http://www.w3.org/1999/xlink" xmlns:ev="http://www.w3.org/2001/xml-events" width="30" height="37" viewBox="0 0 30 37"><g transform="scale(NaN)" ><path fill-rule="evenodd"  opacity="0.251" fill="rgb( 0, 0, 0 )" d="M29.838,34.271 C30.249,35.252 29.811,36.391 28.861,36.815 C27.910,37.240 26.806,36.788 26.395,35.807 C24.585,31.493 20.311,28.705 15.503,28.705 C10.582,28.705 6.282,31.491 4.547,35.802 C4.246,36.546 3.549,36.995 2.814,36.997 C2.573,36.997 2.331,36.949 2.095,36.848 C1.138,36.437 0.684,35.305 1.083,34.318 C3.402,28.558 9.063,24.836 15.503,24.836 C21.808,24.836 27.435,28.539 29.838,34.271 ZM0.212,10.837 C-0.211,10.078 0.043,9.111 0.778,8.676 C0.778,8.676 6.434,5.324 6.434,5.324 C7.169,4.890 8.107,5.151 8.529,5.909 C8.952,6.668 8.698,7.635 7.963,8.071 C7.963,8.071 2.308,11.421 2.308,11.421 C1.571,11.856 0.634,11.595 0.212,10.837 ZM8.987,10.905 C10.042,11.995 10.042,13.762 8.987,14.849 C7.932,15.938 6.220,15.938 5.162,14.848 C4.107,13.759 4.107,11.993 5.162,10.905 C6.218,9.816 7.930,9.816 8.987,10.905 ZM18.178,1.435 C18.254,0.565 18.999,-0.079 19.843,-0.000 C19.843,-0.000 26.340,0.602 26.340,0.602 C27.184,0.680 27.808,1.449 27.731,2.320 C27.655,3.192 26.910,3.834 26.065,3.755 C26.065,3.755 19.569,3.154 19.569,3.154 C18.726,3.075 18.102,2.305 18.178,1.435 ZM25.114,10.859 C26.169,11.948 26.169,13.714 25.114,14.802 C24.057,15.892 22.344,15.892 21.289,14.803 C20.234,13.715 20.234,11.949 21.289,10.859 C22.345,9.769 24.057,9.769 25.114,10.859 Z"/></g></svg>